<svg width="159" height="144" viewBox="0 0 159 144" fill="none" xmlns="http://www.w3.org/2000/svg">
<path d="M16.8327 -4.11103C13.4726 12.8595 14.5294 45.6255 45.6368 40.9257C53.0264 33.614 71.434 21.4854 85.9469 31.4655C94.0077 35.9116 110.406 50.4266 111.514 72.9175C115.158 85.9609 129.078 109.753 155.608 100.573C182.138 91.3931 181.008 93.0065 181.482 98.2406C182.692 111.617 195.957 102.565 192.519 143.471" stroke="#BE02F5" stroke-width="0.375"/>
<path d="M18.2858 -6.42744C14.9258 10.5431 15.9826 43.3091 47.0899 38.6093C54.4795 31.2976 72.8871 19.169 87.4 29.1491C95.4608 33.5952 111.859 48.1102 112.967 70.6011C116.611 83.6445 130.531 107.436 157.061 98.2565C183.591 89.0767 182.461 90.6901 182.935 95.9242C184.145 109.301 197.411 100.249 193.972 141.155" stroke="#B604EA" stroke-width="0.375"/>
<path d="M19.7389 -8.74482C16.3789 8.22567 17.4357 40.9917 48.543 36.292C55.9327 28.9802 74.3402 16.8516 88.8531 26.8317C96.914 31.2778 113.312 45.7929 114.42 68.2838C118.064 81.3272 131.984 105.119 158.514 95.9392C185.044 86.7593 183.914 88.3727 184.388 93.6068C185.598 106.983 198.864 97.9317 195.425 138.837" stroke="#AF05E0" stroke-width="0.375"/>
<path d="M21.192 -11.0622C17.832 5.90829 18.8888 38.6743 49.9961 33.9746C57.3858 26.6628 75.7934 14.5342 90.3063 24.5143C98.3671 28.9604 114.766 43.4755 115.873 65.9664C119.517 79.0098 133.437 102.802 159.967 93.6218C186.497 84.4419 185.367 86.0553 185.841 91.2894C187.051 104.666 200.317 95.6143 196.878 136.52" stroke="#A707D6" stroke-width="0.375"/>
<path d="M22.6452 -13.3786C19.2851 3.59188 20.3419 36.3579 51.4493 31.6582C58.8389 24.3464 77.2465 12.2178 91.7594 22.1979C99.8202 26.644 116.219 41.1591 117.326 63.65C120.97 76.6934 134.89 100.485 161.42 91.3054C187.95 82.1255 186.821 83.7389 187.294 88.973C188.504 102.35 201.77 93.2979 198.331 134.203" stroke="#A009CB" stroke-width="0.375"/>
<path d="M24.0983 -15.696C20.7383 1.2745 21.7951 34.0406 52.9024 29.3408C60.292 22.029 78.6996 9.90043 93.2125 19.8805C101.273 24.3267 117.672 38.8417 118.779 61.3326C122.423 74.376 136.343 98.1678 162.873 88.988C189.403 79.8081 188.274 81.4215 188.747 86.6556C189.958 100.032 203.223 90.9805 199.784 131.886" stroke="#980BC1" stroke-width="0.375"/>
<path d="M25.5514 -18.0124C22.1914 -1.0419 23.2482 31.7241 54.3555 27.0244C61.7452 19.7126 80.1527 7.58402 94.6656 17.5641C102.726 22.0103 119.125 36.5253 120.232 59.0162C123.876 72.0596 137.797 95.8514 164.326 86.6716C190.856 77.4917 189.727 79.1051 190.2 84.3392C191.411 97.7158 204.676 88.6641 201.237 129.57" stroke="#910DB7" stroke-width="0.375"/>
<path d="M27.0045 -20.3298C23.6445 -3.35929 24.7013 29.4068 55.8086 24.707C63.1983 17.3952 81.6059 5.26664 96.1188 15.2467C104.18 19.6929 120.578 34.2079 121.685 56.6988C125.329 69.7422 139.25 93.534 165.78 84.3542C192.309 75.1744 191.18 76.7877 191.654 82.0218C192.864 95.3984 206.129 86.3467 202.691 127.252" stroke="#890EAC" stroke-width="0.375"/>
<path d="M28.4577 -22.6462C25.0976 -5.67569 26.1544 27.0904 57.2618 22.3906C64.6514 15.0788 83.059 2.95023 97.5719 12.9303C105.633 17.3765 122.031 31.8915 123.139 54.3824C126.783 67.4258 140.703 91.2176 167.233 82.0378C193.763 72.858 192.633 74.4713 193.107 79.7054C194.317 93.082 207.582 84.0303 204.144 124.936" stroke="#8210A2" stroke-width="0.375"/>
<path d="M29.9108 -24.9636C26.5508 -7.99308 27.6076 24.773 58.7149 20.0732C66.1045 12.7614 84.5121 0.632852 99.025 10.6129C107.086 15.0591 123.484 29.5741 124.592 52.065C128.236 65.1084 142.156 88.9002 168.686 79.7204C195.216 70.5406 194.086 72.1539 194.56 77.388C195.77 90.7646 209.036 81.7129 205.597 122.619" stroke="#7A1297" stroke-width="0.375"/>
<path d="M31.3639 -27.28C28.0039 -10.3095 29.0607 22.4566 60.168 17.7568C67.5577 10.445 85.9652 -1.68355 100.478 8.29652C108.539 12.7427 124.937 27.2577 126.045 49.7486C129.689 62.792 143.609 86.5838 170.139 77.404C196.669 68.2242 195.539 69.8375 196.013 75.0716C197.223 88.4482 210.489 79.3965 207.05 120.302" stroke="#73148D" stroke-width="0.375"/>
<path d="M32.817 -29.5974C29.457 -12.6269 30.5138 20.1392 61.6211 15.4394C69.0108 8.12763 87.4184 -4.00094 101.931 5.97914C109.992 10.4253 126.391 24.9403 127.498 47.4312C131.142 60.4746 145.062 84.2665 171.592 75.0866C198.122 65.9068 196.992 67.5202 197.466 72.7542C198.676 86.1308 211.942 77.0791 208.503 117.985" stroke="#6B1583" stroke-width="0.375"/>
<path d="M34.2702 -31.9138C30.9101 -14.9433 31.9669 17.8228 63.0743 13.123C70.4639 5.81122 88.8715 -6.31734 103.384 3.66273C111.445 8.10888 127.844 22.6239 128.951 45.1148C132.595 58.1582 146.515 81.9501 173.045 72.7702C199.575 63.5904 198.446 65.2037 198.919 70.4378C200.129 83.8144 213.395 74.7627 209.956 115.668" stroke="#641778" stroke-width="0.375"/>
<path d="M35.7233 -34.2312C32.3633 -17.2607 33.4201 15.5054 64.5274 10.8056C71.917 3.49384 90.3246 -8.63473 104.838 1.34535C112.898 5.7915 129.297 20.3065 130.404 42.7974C134.048 55.8408 147.968 79.6327 174.498 70.4528C201.028 61.273 199.899 62.8864 200.372 68.1205C201.583 81.497 214.848 72.4453 211.409 113.351" stroke="#5C196E" stroke-width="0.375"/>
<path d="M37.1764 -36.5476C33.8164 -19.5771 34.8732 13.189 65.9805 8.48923C73.3702 1.17743 91.7777 -10.9511 106.291 -0.971057C114.351 3.4751 130.75 17.9901 131.857 40.481C135.501 53.5244 149.422 77.3163 175.951 68.1364C202.481 58.9566 201.352 60.57 201.825 65.804C203.036 79.1806 216.301 70.1289 212.862 111.035" stroke="#551B64" stroke-width="0.375"/>
<path d="M38.6295 -38.8649C35.2695 -21.8944 36.3263 10.8716 67.4336 6.17184C74.8233 -1.13995 93.2309 -13.2685 107.744 -3.28844C115.805 1.15771 132.203 15.6727 133.31 38.1636C136.954 51.207 150.875 74.9989 177.405 65.819C203.934 56.6392 202.805 58.2526 203.279 63.4867C204.489 76.8632 217.754 67.8116 214.316 108.717" stroke="#4D1D59" stroke-width="0.375"/>
<path d="M40.0827 -41.1813C36.7226 -24.2108 37.7794 8.5552 68.8868 3.85544C76.2764 -3.45635 94.684 -15.5849 109.197 -5.60485C117.258 -1.15869 133.656 13.3563 134.764 35.8472C138.408 48.8906 152.328 72.6825 178.858 63.5026C205.388 54.3228 204.258 55.9362 204.732 61.1703C205.942 74.5468 219.207 65.4951 215.769 106.401" stroke="#461E4F" stroke-width="0.375"/>
<path d="M41.5358 -43.4987C38.1758 -26.5282 39.2326 6.23782 70.3399 1.53805C77.7295 -5.77374 96.1371 -17.9023 110.65 -7.92223C118.711 -3.47608 135.109 11.039 136.217 33.5298C139.861 46.5732 153.781 70.3651 180.311 61.1853C206.841 52.0054 205.711 53.6188 206.185 58.8529C207.395 72.2294 220.661 63.1778 217.222 104.083" stroke="#3E2045" stroke-width="0.375"/>
<path d="M42.9889 -45.8151C39.6289 -28.8446 40.6857 3.92141 71.793 -0.778352C79.1827 -8.09014 97.5902 -20.2187 112.103 -10.2386C120.164 -5.79248 136.562 8.72255 137.67 31.2134C141.314 44.2568 155.234 68.0487 181.764 58.8688C208.294 49.689 207.164 51.3024 207.638 56.5365C208.848 69.913 222.114 60.8614 218.675 101.767" stroke="#37223A" stroke-width="0.375"/>
<path d="M44.442 -48.1325C41.082 -31.162 42.1388 1.60403 73.2461 -3.09573C80.6358 -10.4075 99.0434 -22.5361 113.556 -12.556C121.617 -8.10987 138.016 6.40516 139.123 28.8961C142.767 41.9395 156.687 65.7313 183.217 56.5515C209.747 47.3716 208.617 48.985 209.091 54.2191C210.301 67.5957 223.567 58.544 220.128 99.4496" stroke="#2F2430" stroke-width="0.375"/>
<path d="M16.8327 -4.11103C13.4726 12.8595 14.5294 45.6255 45.6368 40.9257C53.0264 33.614 71.434 21.4854 85.9469 31.4655C94.0077 35.9116 110.406 50.4266 111.514 72.9175C115.158 85.9609 129.078 109.753 155.608 100.573C182.138 91.3931 181.008 93.0065 181.482 98.2406C182.692 111.617 195.957 102.565 192.519 143.471" stroke="#BC00F3" stroke-width="0.375"/>
<path d="M18.2858 -6.42744C14.9258 10.5431 15.9826 43.3091 47.0899 38.6093C54.4795 31.2976 72.8871 19.169 87.4 29.1491C95.4608 33.5952 111.859 48.1102 112.967 70.6011C116.611 83.6445 130.531 107.436 157.061 98.2565C183.591 89.0767 182.461 90.6901 182.935 95.9242C184.145 109.301 197.411 100.249 193.972 141.155" stroke="#B300E7" stroke-width="0.375"/>
<path d="M19.7389 -8.74482C16.3789 8.22567 17.4357 40.9917 48.543 36.292C55.9327 28.9802 74.3402 16.8516 88.8531 26.8317C96.914 31.2778 113.312 45.7929 114.42 68.2838C118.064 81.3272 131.984 105.119 158.514 95.9392C185.044 86.7593 183.914 88.3727 184.388 93.6068C185.598 106.983 198.864 97.9317 195.425 138.837" stroke="#A900DB" stroke-width="0.375"/>
<path d="M21.192 -11.0622C17.832 5.90829 18.8888 38.6743 49.9961 33.9746C57.3858 26.6628 75.7934 14.5342 90.3063 24.5143C98.3671 28.9604 114.766 43.4755 115.873 65.9664C119.517 79.0098 133.437 102.802 159.967 93.6218C186.497 84.4419 185.367 86.0553 185.841 91.2894C187.051 104.666 200.317 95.6143 196.878 136.52" stroke="#A000CE" stroke-width="0.375"/>
<path d="M22.6452 -13.3786C19.2851 3.59188 20.3419 36.3579 51.4493 31.6582C58.8389 24.3464 77.2465 12.2178 91.7594 22.1979C99.8202 26.644 116.219 41.1591 117.326 63.65C120.97 76.6934 134.89 100.485 161.42 91.3054C187.95 82.1255 186.821 83.7389 187.294 88.973C188.504 102.35 201.77 93.2979 198.331 134.203" stroke="#9600C2" stroke-width="0.375"/>
<path d="M24.0983 -15.696C20.7383 1.2745 21.7951 34.0406 52.9024 29.3408C60.292 22.029 78.6996 9.90043 93.2125 19.8805C101.273 24.3267 117.672 38.8417 118.779 61.3326C122.423 74.376 136.343 98.1678 162.873 88.988C189.403 79.8081 188.274 81.4215 188.747 86.6556C189.958 100.032 203.223 90.9805 199.784 131.886" stroke="#8D00B6" stroke-width="0.375"/>
<path d="M25.5514 -18.0124C22.1914 -1.0419 23.2482 31.7241 54.3555 27.0244C61.7452 19.7126 80.1527 7.58402 94.6656 17.5641C102.726 22.0103 119.125 36.5253 120.232 59.0162C123.876 72.0596 137.797 95.8514 164.326 86.6716C190.856 77.4917 189.727 79.1051 190.2 84.3392C191.411 97.7158 204.676 88.6641 201.237 129.57" stroke="#8400AA" stroke-width="0.375"/>
<path d="M27.0045 -20.3298C23.6445 -3.35929 24.7013 29.4068 55.8086 24.707C63.1983 17.3952 81.6059 5.26664 96.1188 15.2467C104.18 19.6929 120.578 34.2079 121.685 56.6988C125.329 69.7422 139.25 93.534 165.78 84.3542C192.309 75.1744 191.18 76.7877 191.654 82.0218C192.864 95.3984 206.129 86.3467 202.691 127.252" stroke="#7A009E" stroke-width="0.375"/>
<path d="M28.4577 -22.6462C25.0976 -5.67569 26.1544 27.0904 57.2618 22.3906C64.6514 15.0788 83.059 2.95023 97.5719 12.9303C105.633 17.3765 122.031 31.8915 123.139 54.3824C126.783 67.4258 140.703 91.2176 167.233 82.0378C193.763 72.858 192.633 74.4713 193.107 79.7054C194.317 93.082 207.582 84.0303 204.144 124.936" stroke="#710092" stroke-width="0.375"/>
<path d="M29.9108 -24.9636C26.5508 -7.99308 27.6076 24.773 58.7149 20.0732C66.1045 12.7614 84.5121 0.632852 99.025 10.6129C107.086 15.0591 123.484 29.5741 124.592 52.065C128.236 65.1084 142.156 88.9002 168.686 79.7204C195.216 70.5406 194.086 72.1539 194.56 77.388C195.77 90.7646 209.036 81.7129 205.597 122.619" stroke="#670086" stroke-width="0.375"/>
<path d="M31.3639 -27.28C28.0039 -10.3095 29.0607 22.4566 60.168 17.7568C67.5577 10.445 85.9652 -1.68355 100.478 8.29652C108.539 12.7427 124.937 27.2577 126.045 49.7486C129.689 62.792 143.609 86.5838 170.139 77.404C196.669 68.2242 195.539 69.8375 196.013 75.0716C197.223 88.4482 210.489 79.3965 207.05 120.302" stroke="#5E0079" stroke-width="0.375"/>
<path d="M32.817 -29.5974C29.457 -12.6269 30.5138 20.1392 61.6211 15.4394C69.0108 8.12763 87.4184 -4.00094 101.931 5.97914C109.992 10.4253 126.391 24.9403 127.498 47.4312C131.142 60.4746 145.062 84.2665 171.592 75.0866C198.122 65.9068 196.992 67.5202 197.466 72.7542C198.676 86.1308 211.942 77.0791 208.503 117.985" stroke="#55006D" stroke-width="0.375"/>
<path d="M34.2702 -31.9138C30.9101 -14.9433 31.9669 17.8228 63.0743 13.123C70.4639 5.81122 88.8715 -6.31734 103.384 3.66273C111.445 8.10888 127.844 22.6239 128.951 45.1148C132.595 58.1582 146.515 81.9501 173.045 72.7702C199.575 63.5904 198.446 65.2037 198.919 70.4378C200.129 83.8144 213.395 74.7627 209.956 115.668" stroke="#4B0061" stroke-width="0.375"/>
<path d="M35.7233 -34.2312C32.3633 -17.2607 33.4201 15.5054 64.5274 10.8056C71.917 3.49384 90.3246 -8.63473 104.838 1.34535C112.898 5.7915 129.297 20.3065 130.404 42.7974C134.048 55.8408 147.968 79.6327 174.498 70.4528C201.028 61.273 199.899 62.8864 200.372 68.1205C201.583 81.497 214.848 72.4453 211.409 113.351" stroke="#420055" stroke-width="0.375"/>
<path d="M37.1764 -36.5476C33.8164 -19.5771 34.8732 13.189 65.9805 8.48923C73.3702 1.17743 91.7777 -10.9511 106.291 -0.971057C114.351 3.4751 130.75 17.9901 131.857 40.481C135.501 53.5244 149.422 77.3163 175.951 68.1364C202.481 58.9566 201.352 60.57 201.825 65.804C203.036 79.1806 216.301 70.1289 212.862 111.035" stroke="#380049" stroke-width="0.375"/>
<path d="M38.6295 -38.8649C35.2695 -21.8944 36.3263 10.8716 67.4336 6.17184C74.8233 -1.13995 93.2309 -13.2685 107.744 -3.28844C115.805 1.15771 132.203 15.6727 133.31 38.1636C136.954 51.207 150.875 74.9989 177.405 65.819C203.934 56.6392 202.805 58.2526 203.279 63.4867C204.489 76.8632 217.754 67.8116 214.316 108.717" stroke="#2F003D" stroke-width="0.375"/>
<path d="M40.0827 -41.1813C36.7226 -24.2108 37.7794 8.5552 68.8868 3.85544C76.2764 -3.45635 94.684 -15.5849 109.197 -5.60485C117.258 -1.15869 133.656 13.3563 134.764 35.8472C138.408 48.8906 152.328 72.6825 178.858 63.5026C205.388 54.3228 204.258 55.9362 204.732 61.1703C205.942 74.5468 219.207 65.4951 215.769 106.401" stroke="#260031" stroke-width="0.375"/>
<path d="M41.5358 -43.4987C38.1758 -26.5282 39.2326 6.23782 70.3399 1.53805C77.7295 -5.77374 96.1371 -17.9023 110.65 -7.92223C118.711 -3.47608 135.109 11.039 136.217 33.5298C139.861 46.5732 153.781 70.3651 180.311 61.1853C206.841 52.0054 205.711 53.6188 206.185 58.8529C207.395 72.2294 220.661 63.1778 217.222 104.083" stroke="#1C0024" stroke-width="0.375"/>
<path d="M42.9889 -45.8151C39.6289 -28.8446 40.6857 3.92141 71.793 -0.778352C79.1827 -8.09014 97.5902 -20.2187 112.103 -10.2386C120.164 -5.79248 136.562 8.72255 137.67 31.2134C141.314 44.2568 155.234 68.0487 181.764 58.8688C208.294 49.689 207.164 51.3024 207.638 56.5365C208.848 69.913 222.114 60.8614 218.675 101.767" stroke="#130018" stroke-width="0.375"/>
<path d="M44.442 -48.1325C41.082 -31.162 42.1388 1.60403 73.2461 -3.09573C80.6358 -10.4075 99.0434 -22.5361 113.556 -12.556C121.617 -8.10987 138.016 6.40516 139.123 28.8961C142.767 41.9395 156.687 65.7313 183.217 56.5515C209.747 47.3716 208.617 48.985 209.091 54.2191C210.301 67.5957 223.567 58.544 220.128 99.4496" stroke="#09000C" stroke-width="0.375"/>
</svg>
